{
  "asset": {
    "version": "2.0",
    "generator": "THREE.GLTFExporter"
  },
  "scenes": [
    {
      "nodes": [
        0
      ]
    }
  ],
  "scene": 0,
  "nodes": [
    {
      "children": [
        6
      ],
      "matrix": [
        0.01,
        0,
        0,
        0,
        0,
        0.01,
        0,
        0,
        0,
        0,
        0.01,
        0,
        0,
        0,
        0,
        1
      ]
    },
    {
      "matrix": [
        0.5115226741836383,
        -0.009680317200512439,
        0.8592152496638529,
        0,
        0.018921124543935745,
        0.9998209794988265,
        0,
        0,
        -0.8590614325192422,
        0.016257318748938605,
        0.51161426362552,
        0,
        0,
        0,
        0,
        1
      ],
      "name": "Directional Light",
      "extensions": {
        "KHR_lights_punctual": {
          "light": 0
        }
      }
    },
    {
      "matrix": [
        20.424107154123043,
        13.120253364015026,
        -18.48141153067936,
        0,
        0.42629545348092457,
        0.44542265820055077,
        0.7873187676557997,
        0,
        3.4745428072290654,
        -4.4847852759400935,
        0.6559518185486843,
        0,
        -787.6321504890243,
        421.50508360492336,
        1055.810987270977,
        0.9999999999999989
      ],
      "name": "Point Light",
      "extensions": {
        "KHR_lights_punctual": {
          "light": 1
        }
      }
    },
    {
      "matrix": [
        -5.999615203951246,
        -1.4135029779982489e-7,
        -0.0679514864962277,
        0,
        0.06791442840128933,
        -0.19814195036884685,
        -5.996342835255417,
        0,
        -0.002243865413331464,
        -5.99672742147782,
        0.19812924459553694,
        0,
        33.74563873643547,
        165.76531837101538,
        -19.163871756272783,
        1.0000000000000007
      ],
      "name": "pluto",
      "mesh": 0,
      "children": [
        1,
        2
      ]
    },
    {
      "matrix": [
        0.9743566513070554,
        1.734723475976807e-17,
        -0.2250091466000912,
        0,
        -0.041637928962280135,
        0.982729118270138,
        -0.1803046393627444,
        0,
        0.2211230402410238,
        0.18504993948660778,
        0.9575286528196267,
        0,
        160.24822757681636,
        737.358013313826,
        1143.3365588468978,
        1
      ],
      "name": "Personal Camera",
      "camera": 0
    },
    {
      "matrix": [
        1,
        0,
        0,
        0,
        0,
        1,
        0,
        0,
        0,
        0,
        1,
        0,
        0,
        1,
        0,
        1
      ],
      "name": "Default Ambient Light"
    },
    {
      "name": "Scene 2",
      "children": [
        3,
        4,
        5
      ]
    }
  ],
  "bufferViews": [
    {
      "buffer": 0,
      "byteOffset": 0,
      "byteLength": 47616,
      "target": 34962,
      "byteStride": 12
    },
    {
      "buffer": 0,
      "byteOffset": 47616,
      "byteLength": 47616,
      "target": 34962,
      "byteStride": 12
    },
    {
      "buffer": 0,
      "byteOffset": 95232,
      "byteLength": 23808,
      "target": 34963
    }
  ],
  "buffers": [
    {
      "byteLength": 119040,
      "uri": "data:application/octet-stream;base64,"
    }
  ],
  "accessors": [
    {
      "bufferView": 0,
      "componentType": 5126,
      "count": 3968,
      "max": [
        585.7545776367188,
        598.799072265625,
        585.7545776367188
      ],
      "min": [
        -585.7545776367188,
        -598.799072265625,
        -585.7545776367188
      ],
      "type": "VEC3"
    },
    {
      "bufferView": 1,
      "componentType": 5126,
      "count": 3968,
      "max": [
        1.0000001192092896,
        1.0000001192092896,
        1.0000001192092896
      ],
      "min": [
        -1.0000001192092896,
        -1.0000001192092896,
        -1.0000001192092896
      ],
      "type": "VEC3"
    },
    {
      "bufferView": 2,
      "componentType": 5125,
      "count": 5952,
      "max": [
        3967
      ],
      "min": [
        0
      ],
      "type": "SCALAR"
    }
  ],
  "materials": [
    {
      "pbrMetallicRoughness": {
        "baseColorFactor": [
          0,
          0,
          0,
          1
        ],
        "metallicFactor": 0,
        "roughnessFactor": 0.995
      },
      "doubleSided": true
    }
  ],
  "meshes": [
    {
      "primitives": [
        {
          "mode": 4,
          "attributes": {
            "POSITION": 0,
            "NORMAL": 1
          },
          "extras": {
            "type": "SubdivGeometry",
            "parameters": {
              "width": 1200,
              "height": 1200,
              "depth": 1200
            }
          },
          "indices": 2,
          "material": 0
        }
      ]
    }
  ],
  "extensions": {
    "KHR_lights_punctual": {
      "lights": [
        {
          "name": "Directional Light",
          "color": [
            1,
            1,
            1
          ],
          "intensity": 0.1,
          "type": "directional"
        },
        {
          "name": "Point Light",
          "color": [
            1,
            0.994333725222492,
            0.6600235133495145
          ],
          "intensity": 7.367,
          "type": "point",
          "range": 2000
        }
      ]
    }
  },
  "cameras": [
    {
      "type": "orthographic",
      "orthographic": {
        "xmag": 148.03541981121134,
        "ymag": 112.03458814506072,
        "zfar": 100000,
        "znear": 0
      },
      "name": "Camera"
    }
  ],
  "extensionsUsed": [
    "KHR_lights_punctual"
  ]
}