{
  "accessors": [
    {
      "bufferView": 3,
      "componentType": 5126,
      "count": 974,
      "max": [
        -0.899779200553894,
        1.2196564674377441,
        0.04631372541189194
      ],
      "min": [
        -0.9153448343276978,
        1.1267064809799194,
        -0.04631372541189194
      ],
      "type": "VEC3"
    },
    {
      "bufferView": 3,
      "byteOffset": 11688,
      "componentType": 5126,
      "count": 974,
      "max": [
        0.9997492432594299,
        0.9169658422470093,
        0.9940464496612549
      ],
      "min": [
        -0.9999396204948425,
        -0.9255844950675964,
        -0.9940464496612549
      ],
      "type": "VEC3"
    },
    {
      "bufferView": 2,
      "componentType": 5126,
      "count": 974,
      "max": [
        0.9907230138778687,
        0.9891660213470459
      ],
      "min": [
        0.008666999638080597,
        0.011718999594449997
      ],
      "type": "VEC2"
    },
    {
      "bufferView": 1,
      "componentType": 5125,
      "count": 5760,
      "type": "SCALAR"
    },
    {
      "bufferView": 3,
      "byteOffset": 23376,
      "componentType": 5126,
      "count": 4251,
      "max": [
        1.25,
        1.03761887550354,
        0.28592807054519653
      ],
      "min": [
        -0.7763537764549255,
        0.0,
        -0.28592807054519653
      ],
      "type": "VEC3"
    },
    {
      "bufferView": 3,
      "byteOffset": 74388,
      "componentType": 5126,
      "count": 4251,
      "max": [
        0.9984359741210938,
        0.999967634677887,
        0.9998592138290405
      ],
      "min": [
        -0.9995754361152649,
        -0.9999999403953552,
        -0.9998592734336853
      ],
      "type": "VEC3"
    },
    {
      "bufferView": 2,
      "byteOffset": 7792,
      "componentType": 5126,
      "count": 4251,
      "max": [
        0.9907230138778687,
        0.9915080070495605
      ],
      "min": [
        0.00890399981290102,
        0.0087890001013875
      ],
      "type": "VEC2"
    },
    {
      "bufferView": 1,
      "byteOffset": 23040,
      "componentType": 5125,
      "count": 20664,
      "type": "SCALAR"
    },
    {
      "bufferView": 3,
      "byteOffset": 125400,
      "componentType": 5126,
      "count": 974,
      "max": [
        -0.8999574184417725,
        1.219480037689209,
        0.04613548517227173
      ],
      "min": [
        -0.9151684045791626,
        1.1268846988677979,
        -0.04613548517227173
      ],
      "type": "VEC3"
    },
    {
      "bufferView": 3,
      "byteOffset": 137088,
      "componentType": 5126,
      "count": 974,
      "max": [
        0.999749481678009,
        0.914892315864563,
        0.9941462874412537
      ],
      "min": [
        -0.9999383687973022,
        -0.92259281873703,
        -0.9941462874412537
      ],
      "type": "VEC3"
    },
    {
      "bufferView": 2,
      "byteOffset": 41800,
      "componentType": 5126,
      "count": 974,
      "max": [
        0.9907230138778687,
        0.9891660213470459
      ],
      "min": [
        0.008666999638080597,
        0.011718999594449997
      ],
      "type": "VEC2"
    },
    {
      "bufferView": 1,
      "byteOffset": 105696,
      "componentType": 5125,
      "count": 5760,
      "type": "SCALAR"
    },
    {
      "bufferView": 3,
      "byteOffset": 148776,
      "componentType": 5126,
      "count": 4397,
      "max": [
        -0.49399226903915405,
        1.3342074155807495,
        0.17349109053611755
      ],
      "min": [
        -1.25,
        0.6209788918495178,
        -0.17348931729793549
      ],
      "type": "VEC3"
    },
    {
      "bufferView": 3,
      "byteOffset": 201540,
      "componentType": 5126,
      "count": 4397,
      "max": [
        0.9982262849807739,
        0.9999762177467346,
        0.9999642372131348
      ],
      "min": [
        -0.9999282956123352,
        -0.9998759031295776,
        -0.9999642968177795
      ],
      "type": "VEC3"
    },
    {
      "bufferView": 2,
      "byteOffset": 49592,
      "componentType": 5126,
      "count": 4397,
      "max": [
        0.9912109971046448,
        0.9904630184173584
      ],
      "min": [
        0.009499000385403633,
        0.010254000313580036
      ],
      "type": "VEC2"
    },
    {
      "bufferView": 1,
      "byteOffset": 128736,
      "componentType": 5125,
      "count": 20976,
      "type": "SCALAR"
    },
    {
      "bufferView": 5,
      "componentType": 5126,
      "count": 3,
      "max": [
        1.0,
        0.0,
        0.0,
        0.0,
        0.0,
        1.0,
        0.0,
        0.0,
        0.0,
        0.0,
        1.0,
        0.0,
        0.0,
        0.0,
        0.0,
        1.0
      ],
      "min": [
        1.0,
        0.0,
        0.0,
        0.0,
        0.0,
        1.0,
        0.0,
        0.0,
        0.0,
        0.0,
        1.0,
        0.0,
        0.0,
        0.0,
        0.0,
        1.0
      ],
      "type": "MAT4"
    },
    {
      "bufferView": 0,
      "componentType": 5123,
      "count": 974,
      "type": "VEC4"
    },
    {
      "bufferView": 4,
      "componentType": 5126,
      "count": 974,
      "max": [
        1.0,
        0.0,
        0.0,
        0.0
      ],
      "min": [
        1.0,
        0.0,
        0.0,
        0.0
      ],
      "type": "VEC4"
    },
    {
      "bufferView": 0,
      "byteOffset": 7792,
      "componentType": 5123,
      "count": 4251,
      "type": "VEC4"
    },
    {
      "bufferView": 4,
      "byteOffset": 15584,
      "componentType": 5126,
      "count": 4251,
      "max": [
        1.0,
        0.0,
        0.0,
        0.0
      ],
      "min": [
        1.0,
        0.0,
        0.0,
        0.0
      ],
      "type": "VEC4"
    },
    {
      "bufferView": 0,
      "byteOffset": 41800,
      "componentType": 5123,
      "count": 974,
      "type": "VEC4"
    },
    {
      "bufferView": 4,
      "byteOffset": 83600,
      "componentType": 5126,
      "count": 974,
      "max": [
        1.0,
        0.0,
        0.0,
        0.0
      ],
      "min": [
        1.0,
        0.0,
        0.0,
        0.0
      ],
      "type": "VEC4"
    },
    {
      "bufferView": 0,
      "byteOffset": 49592,
      "componentType": 5123,
      "count": 4397,
      "type": "VEC4"
    },
    {
      "bufferView": 4,
      "byteOffset": 99184,
      "componentType": 5126,
      "count": 4397,
      "max": [
        1.0,
        0.0,
        0.0,
        0.0
      ],
      "min": [
        1.0,
        0.0,
        0.0,
        0.0
      ],
      "type": "VEC4"
    }
  ],
  "asset": {
    "extras": {
      "author": "jackiebatteau (https://sketchfab.com/jackiebatteau)",
      "license": "CC-BY-4.0 (http://creativecommons.org/licenses/by/4.0/)",
      "source": "https://sketchfab.com/3d-models/pluto-cdcbea1c56624860b890988384e4fd96",
      "title": "Pluto"
    },
    "generator": "Sketchfab-16.53.0",
    "version": "2.0"
  },
  "bufferViews": [
    {
      "buffer": 0,
      "byteLength": 84768,
      "byteStride": 8,
      "name": "shortBufferViews",
      "target": 34962
    },
    {
      "buffer": 0,
      "byteLength": 212640,
      "byteOffset": 84768,
      "name": "floatBufferViews",
      "target": 34963
    },
    {
      "buffer": 0,
      "byteLength": 84768,
      "byteOffset": 297408,
      "byteStride": 8,
      "name": "floatBufferViews",
      "target": 34962
    },
    {
      "buffer": 0,
      "byteLength": 254304,
      "byteOffset": 382176,
      "byteStride": 12,
      "name": "floatBufferViews",
      "target": 34962
    },
    {
      "buffer": 0,
      "byteLength": 169536,
      "byteOffset": 636480,
      "byteStride": 16,
      "name": "floatBufferViews",
      "target": 34962
    },
    {
      "buffer": 0,
      "byteLength": 192,
      "byteOffset": 806016,
      "name": "floatBufferViews"
    }
  ],
  "buffers": [
    {
      "byteLength": 806208,
      "uri": "scene.bin"
    }
  ],
  "extensionsRequired": [
    "KHR_materials_pbrSpecularGlossiness"
  ],
  "extensionsUsed": [
    "KHR_materials_pbrSpecularGlossiness"
  ],
  "images": [
    {
      "uri": "textures/mat_0_diffuse.png"
    },
    {
      "uri": "textures/mat_1_diffuse.png"
    },
    {
      "uri": "textures/mat_1_specularGlossiness.png"
    },
    {
      "uri": "textures/mat_2_diffuse.png"
    },
    {
      "uri": "textures/mat_2_specularGlossiness.png"
    },
    {
      "uri": "textures/mat_3_diffuse.png"
    },
    {
      "uri": "textures/mat_3_specularGlossiness.png"
    }
  ],
  "materials": [
    {
      "doubleSided": true,
      "extensions": {
        "KHR_materials_pbrSpecularGlossiness": {
          "diffuseFactor": [
            1.0,
            1.0,
            1.0,
            1.0
          ],
          "diffuseTexture": {
            "index": 0
          },
          "glossinessFactor": 0.642542,
          "specularFactor": [
            0.05,
            0.05,
            0.05
          ]
        }
      },
      "name": "mat_0"
    },
    {
      "doubleSided": true,
      "extensions": {
        "KHR_materials_pbrSpecularGlossiness": {
          "diffuseFactor": [
            1.0,
            1.0,
            1.0,
            1.0
          ],
          "diffuseTexture": {
            "index": 1
          },
          "glossinessFactor": 0.642542,
          "specularFactor": [
            1.0,
            1.0,
            1.0
          ],
          "specularGlossinessTexture": {
            "index": 2
          }
        }
      },
      "name": "mat_1"
    },
    {
      "doubleSided": true,
      "extensions": {
        "KHR_materials_pbrSpecularGlossiness": {
          "diffuseFactor": [
            1.0,
            1.0,
            1.0,
            1.0
          ],
          "diffuseTexture": {
            "index": 3
          },
          "glossinessFactor": 0.0,
          "specularFactor": [
            0.05,
            0.05,
            0.05
          ],
          "specularGlossinessTexture": {
            "index": 4
          }
        }
      },
      "name": "mat_2"
    },
    {
      "doubleSided": true,
      "extensions": {
        "KHR_materials_pbrSpecularGlossiness": {
          "diffuseFactor": [
            1.0,
            1.0,
            1.0,
            1.0
          ],
          "diffuseTexture": {
            "index": 5
          },
          "glossinessFactor": 0.642542,
          "specularFactor": [
            1.0,
            1.0,
            1.0
          ],
          "specularGlossinessTexture": {
            "index": 6
          }
        }
      },
      "name": "mat_3"
    }
  ],
  "meshes": [
    {
      "name": "Object_0",
      "primitives": [
        {
          "attributes": {
            "JOINTS_0": 17,
            "NORMAL": 1,
            "POSITION": 0,
            "TEXCOORD_0": 2,
            "WEIGHTS_0": 18
          },
          "indices": 3,
          "material": 0,
          "mode": 4
        }
      ]
    },
    {
      "name": "Object_1",
      "primitives": [
        {
          "attributes": {
            "JOINTS_0": 19,
            "NORMAL": 5,
            "POSITION": 4,
            "TEXCOORD_0": 6,
            "TEXCOORD_1": 6,
            "TEXCOORD_2": 6,
            "TEXCOORD_3": 6,
            "WEIGHTS_0": 20
          },
          "indices": 7,
          "material": 1,
          "mode": 4
        }
      ]
    },
    {
      "name": "Object_2",
      "primitives": [
        {
          "attributes": {
            "JOINTS_0": 21,
            "NORMAL": 9,
            "POSITION": 8,
            "TEXCOORD_0": 10,
            "TEXCOORD_1": 10,
            "TEXCOORD_2": 10,
            "TEXCOORD_3": 10,
            "WEIGHTS_0": 22
          },
          "indices": 11,
          "material": 2,
          "mode": 4
        }
      ]
    },
    {
      "name": "Object_3",
      "primitives": [
        {
          "attributes": {
            "JOINTS_0": 23,
            "NORMAL": 13,
            "POSITION": 12,
            "TEXCOORD_0": 14,
            "TEXCOORD_1": 14,
            "TEXCOORD_2": 14,
            "TEXCOORD_3": 14,
            "WEIGHTS_0": 24
          },
          "indices": 15,
          "material": 3,
          "mode": 4
        }
      ]
    }
  ],
  "nodes": [
    {
      "children": [
        1
      ],
      "matrix": [
        1.0,
        0.0,
        0.0,
        0.0,
        0.0,
        2.220446049250313e-16,
        -1.0,
        0.0,
        0.0,
        1.0,
        2.220446049250313e-16,
        0.0,
        0.0,
        0.0,
        0.0,
        1.0
      ],
      "name": "Sketchfab_model"
    },
    {
      "children": [
        2
      ],
      "name": "root"
    },
    {
      "children": [
        3
      ],
      "matrix": [
        1.0,
        0.0,
        0.0,
        0.0,
        0.0,
        2.220446049250313e-16,
        1.0,
        0.0,
        0.0,
        -1.0,
        2.220446049250313e-16,
        0.0,
        0.0,
        0.0,
        0.0,
        1.0
      ],
      "name": "GLTF_SceneRootNode"
    },
    {
      "children": [
        4
      ],
      "matrix": [
        1.0,
        0.0,
        0.0,
        0.0,
        0.0,
        2.220446049250313e-16,
        -1.0,
        0.0,
        0.0,
        1.0,
        2.220446049250313e-16,
        0.0,
        0.0,
        0.0,
        0.0,
        1.0
      ],
      "name": "Sketchfab_model_0"
    },
    {
      "children": [
        5
      ],
      "matrix": [
        1.0,
        0.0,
        0.0,
        0.0,
        0.0,
        0.0,
        1.0,
        0.0,
        0.0,
        -1.0,
        0.0,
        0.0,
        0.0,
        0.0,
        0.0,
        1.0
      ],
      "name": "8QFRKPRYJ93CEG350QGLMQU4X.fbx_1"
    },
    {
      "children": [
        6
      ],
      "name": "RootNode_2"
    },
    {
      "children": [
        7
      ],
      "name": "Object_3_3"
    },
    {
      "children": [
        8,
        13,
        16,
        19,
        22,
        11,
        14,
        17,
        20
      ],
      "name": "GLTF_created_0"
    },
    {
      "children": [
        9
      ],
      "name": "GLTF_created_0_rootJoint"
    },
    {
      "children": [
        10
      ],
      "name": "_rootJoint_4"
    },
    {
      "name": "RigModels_Pluto_00_9"
    },
    {
      "children": [
        12
      ],
      "name": "Object_5_5_correction"
    },
    {
      "name": "Object_5_5"
    },
    {
      "mesh": 0,
      "name": "Object_13",
      "skin": 0
    },
    {
      "children": [
        15
      ],
      "name": "Object_6_6_correction"
    },
    {
      "name": "Object_6_6"
    },
    {
      "mesh": 1,
      "name": "Object_16",
      "skin": 0
    },
    {
      "children": [
        18
      ],
      "name": "Object_7_7_correction"
    },
    {
      "name": "Object_7_7"
    },
    {
      "mesh": 2,
      "name": "Object_19",
      "skin": 0
    },
    {
      "children": [
        21
      ],
      "name": "Object_8_8_correction"
    },
    {
      "name": "Object_8_8"
    },
    {
      "mesh": 3,
      "name": "Object_22",
      "skin": 0
    }
  ],
  "samplers": [
    {
      "magFilter": 9729,
      "minFilter": 9987,
      "wrapS": 10497,
      "wrapT": 10497
    }
  ],
  "scene": 0,
  "scenes": [
    {
      "name": "Sketchfab_Scene",
      "nodes": [
        0
      ]
    }
  ],
  "skins": [
    {
      "inverseBindMatrices": 16,
      "joints": [
        8,
        9,
        10
      ],
      "skeleton": 8
    }
  ],
  "textures": [
    {
      "sampler": 0,
      "source": 0
    },
    {
      "sampler": 0,
      "source": 1
    },
    {
      "sampler": 0,
      "source": 2
    },
    {
      "sampler": 0,
      "source": 3
    },
    {
      "sampler": 0,
      "source": 4
    },
    {
      "sampler": 0,
      "source": 5
    },
    {
      "sampler": 0,
      "source": 6
    }
  ]
}
